# xmcd
#
# Track frame offsets: 
#        150
#        28367
#        61718
#        122623
#        151015
#        186650
#
# Disc length: 2888 seconds
#
# Revision: 0
# Processed by: cddbd v1.5.2PL0 Copyright (c) Steve Scherf et al.
# Submitted via: ExactAudioCopy v0.95b4
#
DISCID=4a0b4606
DTITLE=Eric Clapton - 1983-07-10 - Cocaine And Alcohol - CD2
DYEAR=1983
DGENRE=Blues
TTITLE0=Wonderful Tonight
TTITLE1=Blues Power
TTITLE2=Country Boy and Have You Ever Loved A Woman and Ramblin' On My Min
TTITLE2=d
TTITLE3=Cocaine
TTITLE4=Layla
TTITLE5=Further On Up The Road
EXTD=
EXTT0=
EXTT1=
EXTT2=
EXTT3=
EXTT4=
EXTT5=
PLAYORDER=
